<svg width="117" height="36" viewBox="0 0 117 36" fill="none" xmlns="http://www.w3.org/2000/svg">
<path d="M1.27734 9.27344V1.2784H10.0719" stroke="#3831BF" stroke-width="2.55841"/>
<path d="M115.125 9.27344V1.2784H106.33" stroke="#3831BF" stroke-width="2.55841"/>
<path d="M1.27734 26.543V34.538H10.0719" stroke="#3831BF" stroke-width="2.55841"/>
<path d="M115.125 26.543V34.538H106.33" stroke="#3831BF" stroke-width="2.55841"/>
<path d="M91.942 29.4355V26.6664L100.141 16.5163V16.3964H92.2254V12.6896H105.733V15.7095L98.0364 25.6088V25.7288H106.017V29.4355H91.942Z" fill="#1D1D1D"/>
<path d="M73.6169 18.9047L73.6169 5.43555H77.7828V14.2507H77.9554C78.1703 13.8211 78.4733 13.3646 78.8646 12.8812C79.2559 12.3902 79.7852 11.9721 80.4527 11.6269C81.1202 11.2739 81.9717 11.0975 83.0075 11.0975C84.3731 11.0975 85.6044 11.4466 86.7015 12.1447C87.8063 12.8352 88.6809 13.8594 89.3254 15.2174C89.9775 16.5676 90.3035 18.2248 90.3035 20.1888C90.3035 22.1298 89.9852 23.7793 89.3484 25.1373C88.7116 26.4952 87.8447 27.5309 86.7476 28.2444C85.6505 28.9579 84.4076 29.3147 83.019 29.3147C82.0063 29.3147 81.1662 29.1459 80.4987 28.8083C79.8313 28.4708 79.2942 28.0641 78.8876 27.5885C78.4886 27.1051 78.1779 26.6487 77.9554 26.219V28.941H73.5469L73.6169 18.9047ZM77.7023 20.1658C77.7023 21.3089 77.8634 22.3101 78.1856 23.1694C78.5155 24.0287 78.9873 24.7 79.6011 25.1833C80.2225 25.659 80.9744 25.8968 81.8567 25.8968C82.7773 25.8968 83.5483 25.6513 84.1698 25.1603C84.7912 24.6616 85.2592 23.9826 85.5738 23.1234C85.896 22.2564 86.0571 21.2706 86.0571 20.1658C86.0571 19.0687 85.8998 18.0944 85.5853 17.2428C85.2707 16.3912 84.8027 15.7237 84.1813 15.2404C83.5598 14.757 82.785 14.5154 81.8567 14.5154C80.9667 14.5154 80.211 14.7494 79.5896 15.2174C78.9682 15.6854 78.4963 16.3413 78.1741 17.1852C77.8595 18.0292 77.7023 19.0227 77.7023 20.1658Z" fill="#1D1D1D"/>
<path d="M61.5362 29.3609C60.4161 29.3609 59.4072 29.1614 58.5096 28.7625C57.6197 28.3558 56.9138 27.7574 56.3921 26.9672C55.8781 26.177 55.6211 25.2026 55.6211 24.0442C55.6211 23.0468 55.8052 22.2221 56.1735 21.5699C56.5417 20.9178 57.0443 20.3961 57.681 20.0049C58.3178 19.6136 59.0351 19.3182 59.833 19.1187C60.6386 18.9116 61.471 18.762 62.3303 18.6699C63.366 18.5625 64.2061 18.4666 64.8505 18.3822C65.495 18.2902 65.963 18.1521 66.2545 17.9679C66.5537 17.7761 66.7033 17.4808 66.7033 17.0818V17.0128C66.7033 16.1458 66.4463 15.4745 65.9323 14.9989C65.4183 14.5232 64.6779 14.2854 63.7112 14.2854C62.6909 14.2854 61.8815 14.5079 61.283 14.9528C60.6923 15.3978 60.2933 15.9234 60.0862 16.5294L56.1965 15.9771C56.5034 14.903 57.0097 14.0053 57.7156 13.2842C58.4214 12.5553 59.2845 12.0106 60.3049 11.65C61.3252 11.2818 62.453 11.0977 63.6882 11.0977C64.5398 11.0977 65.3876 11.1974 66.2315 11.3969C67.0754 11.5963 67.8464 11.9262 68.5446 12.3866C69.2427 12.8392 69.8028 13.4568 70.2248 14.2393C70.6544 15.0219 70.8692 16.0001 70.8692 17.1739V29.0041H66.8644V26.5759H66.7263C66.4732 27.0669 66.1164 27.5273 65.6561 27.9569C65.2034 28.3789 64.6319 28.7203 63.9414 28.9811C63.2586 29.2343 62.4569 29.3609 61.5362 29.3609ZM62.618 26.2997C63.4542 26.2997 64.1792 26.1348 64.793 25.8049C65.4067 25.4673 65.8786 25.0224 66.2085 24.47C66.546 23.9176 66.7148 23.3153 66.7148 22.6632V20.5803C66.5844 20.6877 66.3619 20.7874 66.0474 20.8795C65.7405 20.9715 65.3952 21.0521 65.0116 21.1211C64.628 21.1902 64.2483 21.2516 63.8723 21.3053C63.4964 21.359 63.1704 21.405 62.8942 21.4434C62.2727 21.5278 61.7165 21.6658 61.2255 21.8577C60.7345 22.0495 60.3471 22.318 60.0632 22.6632C59.7793 23.0008 59.6374 23.4381 59.6374 23.9751C59.6374 24.7423 59.9174 25.3216 60.4775 25.7128C61.0375 26.1041 61.751 26.2997 62.618 26.2997Z" fill="#1D1D1D"/>
<path d="M43.168 29.1014V6.77344H47.8887V25.2093H54.3392V29.1014H43.168Z" fill="#1D1D1D"/>
<path d="M32.2541 19.0791H36.4796V23.4443C36.4796 24.014 36.6335 24.451 36.8074 24.7553C36.9892 25.0519 37.2263 25.2547 37.5188 25.364C37.8113 25.4732 38.1354 25.5279 38.4911 25.5279C38.7599 25.5279 39.005 25.5083 39.2263 25.4693C39.4556 25.4303 39.6295 25.3952 39.748 25.364L40.4713 28.6765C40.2421 28.7546 39.914 28.8404 39.4872 28.934C39.0682 29.0277 38.5544 29.0823 37.9457 29.0979C36.8706 29.1291 35.9023 28.9692 35.0406 28.618C34.179 28.2591 33.4952 27.705 32.9893 26.9559C32.4912 26.2068 32.2462 25.2703 32.2541 24.1467L32.2541 19.0791Z" fill="#3831BF"/>
<path d="M15.0587 29.7559H9.99999L17.7079 7.42789H23.7914L31.4885 29.7559H26.4298L20.8369 12.5302H20.6625L15.0587 29.7559ZM14.7425 20.9795H26.6915V24.6645H14.7425V20.9795Z" fill="#3831BF"/>
<path d="M36.4823 7.30273L36.4823 19.0793H32.2227L32.2227 7.30273H36.4823Z" fill="#3831BF"/>
<rect x="29.1758" y="10.959" width="10.9543" height="3.42323" fill="#3831BF"/>
</svg>
